<svg version="1.1" id="Layer_1" xmlns="http://www.w3.org/2000/svg" xmlns:xlink="http://www.w3.org/1999/xlink" x="0px" y="0px"
	 width="100%" viewBox="0 0 1024 1024" enable-background="new 0 0 1024 1024" xml:space="preserve">
<path fill="#000000" opacity="1.000000" stroke="none" 
	d="
M568.000000,1025.000000 
	C378.666656,1025.000000 189.833328,1025.000000 1.000000,1025.000000 
	C1.000000,683.666687 1.000000,342.333344 1.000000,1.000000 
	C342.333344,1.000000 683.666687,1.000000 1025.000000,1.000000 
	C1025.000000,342.333344 1025.000000,683.666687 1025.000000,1025.000000 
	C872.833313,1025.000000 720.666687,1025.000000 568.000000,1025.000000 
M73.207962,528.092590 
	C73.804794,535.684570 74.311607,543.284973 75.020378,550.866455 
	C75.991119,561.250244 76.542122,571.716858 78.284241,581.976318 
	C82.955399,609.485107 89.461502,636.532043 99.001335,662.853699 
	C110.672836,695.056946 125.815399,725.464539 144.508118,754.108337 
	C162.706696,781.994934 183.537933,807.737732 207.972488,830.456787 
	C216.609024,838.486938 224.709579,847.267944 234.146042,854.226440 
	C252.691574,867.901978 271.700043,881.008850 291.072510,893.488708 
	C314.516449,908.591370 340.147308,919.415039 366.297791,928.877747 
	C389.915161,937.423950 414.161743,944.073914 439.004791,947.594482 
	C460.781586,950.680420 482.780945,952.610474 504.749756,953.809937 
	C526.642639,955.005127 548.478210,952.811462 570.276367,950.164917 
	C595.734436,947.074097 620.600281,941.532471 645.055725,934.072693 
	C686.393311,921.463257 724.921448,902.744690 760.595398,878.487000 
	C786.559570,860.831848 810.390015,840.547302 832.094543,817.661621 
	C852.640259,795.997925 870.995911,772.774719 886.898743,747.579834 
	C900.237488,726.447327 911.626953,704.285278 921.105164,681.148315 
	C930.828674,657.412476 938.233887,632.970581 943.864563,607.954346 
	C949.667603,582.172607 952.874695,556.010681 953.759216,529.691711 
	C954.354431,511.979401 953.247375,494.146301 951.855042,476.449615 
	C950.584595,460.302856 948.727783,444.109314 945.681946,428.213745 
	C938.490479,390.684540 926.561340,354.571747 909.519531,320.343231 
	C902.125977,305.493408 893.492554,291.232422 884.933655,276.997833 
	C871.286377,254.300568 854.916443,233.575668 836.725952,214.402451 
	C821.171448,198.007584 804.817322,182.448242 787.050537,168.305405 
	C761.553772,148.009369 734.045410,131.014069 704.944336,116.678474 
	C683.170593,105.952400 660.364014,97.586823 636.988647,90.795021 
	C606.138733,81.831459 574.697693,76.228218 542.699646,74.163513 
	C528.338135,73.236832 513.854370,73.613144 499.450317,74.106934 
	C485.552643,74.583374 471.661285,75.708099 457.811493,77.017426 
	C432.117889,79.446426 407.121155,85.451118 382.534851,93.051224 
	C339.811829,106.257736 299.863678,125.409859 263.385071,151.297211 
	C247.318192,162.699203 231.750595,174.945648 216.936691,187.927429 
	C205.209885,198.203873 194.376785,209.672958 184.236404,221.543259 
	C171.544907,236.399857 159.185593,251.668243 148.090607,267.731201 
	C130.677231,292.941681 116.683487,320.118744 105.125862,348.566254 
	C89.332222,387.440155 79.511681,427.812714 75.250824,469.422333 
	C73.292854,488.542877 73.717316,507.907379 73.207962,528.092590 
z"/>
<path fill="#10131A" opacity="1.000000" stroke="none" 
	d="
M73.134705,527.626953 
	C73.717316,507.907379 73.292854,488.542877 75.250824,469.422333 
	C79.511681,427.812714 89.332222,387.440155 105.125862,348.566254 
	C116.683487,320.118744 130.677231,292.941681 148.090607,267.731201 
	C159.185593,251.668243 171.544907,236.399857 184.236404,221.543259 
	C194.376785,209.672958 205.209885,198.203873 216.936691,187.927429 
	C231.750595,174.945648 247.318192,162.699203 263.385071,151.297211 
	C299.863678,125.409859 339.811829,106.257736 382.534851,93.051224 
	C407.121155,85.451118 432.117889,79.446426 457.811493,77.017426 
	C471.661285,75.708099 485.552643,74.583374 499.450317,74.106934 
	C513.854370,73.613144 528.338135,73.236832 542.699646,74.163513 
	C574.697693,76.228218 606.138733,81.831459 636.988647,90.795021 
	C660.364014,97.586823 683.170593,105.952400 704.944336,116.678474 
	C734.045410,131.014069 761.553772,148.009369 787.050537,168.305405 
	C804.817322,182.448242 821.171448,198.007584 836.725952,214.402451 
	C854.916443,233.575668 871.286377,254.300568 884.933655,276.997833 
	C893.492554,291.232422 902.125977,305.493408 909.519531,320.343231 
	C926.561340,354.571747 938.490479,390.684540 945.681946,428.213745 
	C948.727783,444.109314 950.584595,460.302856 951.855042,476.449615 
	C953.247375,494.146301 954.354431,511.979401 953.759216,529.691711 
	C952.874695,556.010681 949.667603,582.172607 943.864563,607.954346 
	C938.233887,632.970581 930.828674,657.412476 921.105164,681.148315 
	C911.626953,704.285278 900.237488,726.447327 886.898743,747.579834 
	C870.995911,772.774719 852.640259,795.997925 832.094543,817.661621 
	C810.390015,840.547302 786.559570,860.831848 760.595398,878.487000 
	C724.921448,902.744690 686.393311,921.463257 645.055725,934.072693 
	C620.600281,941.532471 595.734436,947.074097 570.276367,950.164917 
	C548.478210,952.811462 526.642639,955.005127 504.749756,953.809937 
	C482.780945,952.610474 460.781586,950.680420 439.004791,947.594482 
	C414.161743,944.073914 389.915161,937.423950 366.297791,928.877747 
	C340.147308,919.415039 314.516449,908.591370 291.072510,893.488708 
	C271.700043,881.008850 252.691574,867.901978 234.146042,854.226440 
	C224.709579,847.267944 216.609024,838.486938 207.972488,830.456787 
	C183.537933,807.737732 162.706696,781.994934 144.508118,754.108337 
	C125.815399,725.464539 110.672836,695.056946 99.001335,662.853699 
	C89.461502,636.532043 82.955399,609.485107 78.284241,581.976318 
	C76.542122,571.716858 75.991119,561.250244 75.020378,550.866455 
	C74.311607,543.284973 73.804794,535.684570 73.134705,527.626953 
M527.636108,393.827728 
	C523.058289,375.636993 518.480469,357.446289 513.547607,337.844788 
	C506.717072,365.205536 500.238129,391.157776 493.644196,417.570709 
	C470.173004,403.463043 447.363281,389.752960 424.553558,376.042877 
	C424.371979,376.254578 424.190430,376.466309 424.008881,376.678040 
	C437.757477,399.547882 451.506042,422.417755 465.520538,445.729950 
	C439.009460,452.332123 413.001953,458.808899 385.662933,465.617279 
	C412.953888,472.445404 438.958984,478.951813 465.511047,485.595093 
	C451.438477,509.008514 437.738556,531.802002 424.038635,554.595459 
	C424.261444,554.792725 424.484253,554.989990 424.707092,555.187256 
	C447.573639,541.441162 470.440186,527.695129 493.668121,513.731750 
	C500.262299,540.179993 506.733917,566.136719 513.548279,593.468140 
	C520.413025,566.091248 526.927307,540.112305 533.542053,513.732483 
	C556.714478,527.669800 579.217468,541.204468 601.720459,554.739136 
	C602.051697,554.474304 602.382996,554.209473 602.714233,553.944641 
	C589.117737,531.280396 575.521240,508.616150 561.699097,485.575775 
	C588.282104,478.921600 614.166016,472.442444 641.466614,465.608612 
	C613.976990,458.764099 588.062317,452.311707 561.668152,445.739899 
	C575.673157,422.427429 589.437988,399.514709 603.202820,376.601990 
	C602.956421,376.445892 602.710022,376.289764 602.463684,376.133667 
	C579.590454,389.881592 556.717224,403.629517 533.511536,417.577271 
	C531.505615,409.438721 529.679993,402.031525 527.636108,393.827728 
M657.996216,843.381409 
	C751.041382,801.519775 815.047546,732.414001 852.141052,637.055359 
	C846.791382,635.022522 842.063354,633.225952 836.971313,631.291016 
	C807.399048,709.375916 757.421326,769.933105 685.492432,811.454895 
	C613.486572,853.021118 535.924683,865.920349 453.660065,852.537720 
	C452.826294,858.080627 452.094055,862.948303 451.295502,868.256836 
	C522.690308,880.304565 591.200684,872.155701 657.996216,843.381409 
M344.014801,214.462051 
	C415.798584,174.399200 492.358307,161.547180 573.530762,174.833801 
	C574.364014,169.358139 575.106323,164.480255 575.846313,159.617279 
	C504.231171,145.425476 407.604462,154.298584 320.681213,209.808929 
	C252.192108,253.546951 204.086472,313.916931 175.336975,390.344971 
	C180.654755,392.418610 185.360626,394.253662 190.236343,396.154907 
	C220.097092,317.321350 270.857666,256.861572 344.014801,214.462051 
M489.758392,182.788589 
	C488.409088,179.400848 489.932007,173.724564 482.838623,175.195099 
	C456.504517,180.654480 431.034241,188.766983 406.930847,200.679443 
	C372.169983,217.859085 340.858063,239.970230 315.331238,269.360474 
	C302.942596,283.624115 291.773315,298.989838 280.641022,314.285278 
	C274.170380,323.175720 274.787933,323.408295 284.296875,329.285675 
	C287.585175,331.318146 289.139008,331.266418 291.286621,327.719482 
	C306.623627,302.389160 325.060333,279.641174 347.330414,259.953827 
	C366.014313,243.436737 386.289612,229.354843 408.385651,217.920639 
	C432.453461,205.466080 457.851685,196.585327 484.471405,191.511642 
	C489.811737,190.493774 491.903870,188.873489 489.758392,182.788589 
z"/>
<path fill="#FDFDFD" opacity="1.000000" stroke="none" 
	d="
M527.745239,394.226013 
	C529.679993,402.031525 531.505615,409.438721 533.511536,417.577271 
	C556.717224,403.629517 579.590454,389.881592 602.463684,376.133667 
	C602.710022,376.289764 602.956421,376.445892 603.202820,376.601990 
	C589.437988,399.514709 575.673157,422.427429 561.668152,445.739899 
	C588.062317,452.311707 613.976990,458.764099 641.466614,465.608612 
	C614.166016,472.442444 588.282104,478.921600 561.699097,485.575775 
	C575.521240,508.616150 589.117737,531.280396 602.714233,553.944641 
	C602.382996,554.209473 602.051697,554.474304 601.720459,554.739136 
	C579.217468,541.204468 556.714478,527.669800 533.542053,513.732483 
	C526.927307,540.112305 520.413025,566.091248 513.548279,593.468140 
	C506.733917,566.136719 500.262299,540.179993 493.668121,513.731750 
	C470.440186,527.695129 447.573639,541.441162 424.707092,555.187256 
	C424.484253,554.989990 424.261444,554.792725 424.038635,554.595459 
	C437.738556,531.802002 451.438477,509.008514 465.511047,485.595093 
	C438.958984,478.951813 412.953888,472.445404 385.662933,465.617279 
	C413.001953,458.808899 439.009460,452.332123 465.520538,445.729950 
	C451.506042,422.417755 437.757477,399.547882 424.008881,376.678040 
	C424.190430,376.466309 424.371979,376.254578 424.553558,376.042877 
	C447.363281,389.752960 470.173004,403.463043 493.644196,417.570709 
	C500.238129,391.157776 506.717072,365.205536 513.547607,337.844788 
	C518.480469,357.446289 523.058289,375.636993 527.745239,394.226013 
M524.529053,482.228149 
	C533.281433,475.490295 535.868042,465.734589 531.306641,456.666351 
	C526.932495,447.970581 517.035156,443.774811 507.677734,446.649353 
	C496.609497,450.049408 490.817749,462.234741 495.096069,473.120026 
	C499.515076,484.363251 512.128540,488.534088 524.529053,482.228149 
z"/>
<path fill="#C6A169" opacity="1.000000" stroke="none" 
	d="
M657.665771,843.569580 
	C591.200684,872.155701 522.690308,880.304565 451.295502,868.256836 
	C452.094055,862.948303 452.826294,858.080627 453.660065,852.537720 
	C535.924683,865.920349 613.486572,853.021118 685.492432,811.454895 
	C757.421326,769.933105 807.399048,709.375916 836.971313,631.291016 
	C842.063354,633.225952 846.791382,635.022522 852.141052,637.055359 
	C815.047546,732.414001 751.041382,801.519775 657.665771,843.569580 
z"/>
<path fill="#C6A269" opacity="1.000000" stroke="none" 
	d="
M343.701721,214.656250 
	C270.857666,256.861572 220.097092,317.321350 190.236343,396.154907 
	C185.360626,394.253662 180.654755,392.418610 175.336975,390.344971 
	C204.086472,313.916931 252.192108,253.546951 320.681213,209.808929 
	C407.604462,154.298584 504.231171,145.425476 575.846313,159.617279 
	C575.106323,164.480255 574.364014,169.358139 573.530762,174.833801 
	C492.358307,161.547180 415.798584,174.399200 343.701721,214.656250 
z"/>
<path fill="#3A3D42" opacity="1.000000" stroke="none" 
	d="
M489.836914,183.193192 
	C491.903870,188.873489 489.811737,190.493774 484.471405,191.511642 
	C457.851685,196.585327 432.453461,205.466080 408.385651,217.920639 
	C386.289612,229.354843 366.014313,243.436737 347.330414,259.953827 
	C325.060333,279.641174 306.623627,302.389160 291.286621,327.719482 
	C289.139008,331.266418 287.585175,331.318146 284.296875,329.285675 
	C274.787933,323.408295 274.170380,323.175720 280.641022,314.285278 
	C291.773315,298.989838 302.942596,283.624115 315.331238,269.360474 
	C340.858063,239.970230 372.169983,217.859085 406.930847,200.679443 
	C431.034241,188.766983 456.504517,180.654480 482.838623,175.195099 
	C489.932007,173.724564 488.409088,179.400848 489.836914,183.193192 
z"/>
<path fill="#CAA56C" opacity="1.000000" stroke="none" 
	d="
M524.214539,482.436340 
	C512.128540,488.534088 499.515076,484.363251 495.096069,473.120026 
	C490.817749,462.234741 496.609497,450.049408 507.677734,446.649353 
	C517.035156,443.774811 526.932495,447.970581 531.306641,456.666351 
	C535.868042,465.734589 533.281433,475.490295 524.214539,482.436340 
z"/>
</svg>